<svg width="1222" height="239" viewBox="0 0 1222 239" fill="none" xmlns="http://www.w3.org/2000/svg">
<path fill-rule="evenodd" clip-rule="evenodd" d="M142.399 98.4004H21.3993C11.3993 98.4004 2.19931 100.8 0.599313 111.8C-1.10069 122.8 5.9993 130.8 15.8993 131.6C45.5993 134 137.599 127.7 153.699 135.1C162.199 139 168.199 144.4 172.799 150.8C189.299 174 172.299 212.6 185.699 225C191.999 230.8 213.999 234.6 213.999 208.3C213.999 186.8 215.999 162.3 207.299 143.3C201.799 131.1 196.599 126.7 189.099 118.4C192.599 113.8 197.399 110.9 201.699 105.1C229.299 67.9003 209.599 0.900391 146.199 0.900391H17.5993C6.19931 0.900391 -3.10071 11.1004 1.19929 23.5004C5.49929 35.8004 16.9993 34.3004 32.0993 34.3004C59.7993 34.3004 87.4993 34.3004 115.299 34.3004C146.499 34.3004 167.399 30.3004 178.099 54.4004C183.099 65.7004 179.099 79.7004 172.699 86.8004C165.099 95.4004 157.999 98.4004 142.399 98.4004Z" fill="white"/>
<path fill-rule="evenodd" clip-rule="evenodd" d="M260.401 34.3004H371.601C391.301 34.3004 399.801 38.1004 409.701 48.4004C420.001 59.1004 421.301 69.9004 421.301 89.3004L421.201 147.4C421.201 178.7 403.401 195.9 371.601 195.9L260.401 195.8C248.801 195.8 241.301 200.9 241.201 212.2C241.201 224.2 248.201 229 260.401 229H374.501C401.301 229.1 418.001 220.9 431.601 207.4C453.201 185.8 454.601 168.1 454.701 138.7V89.3004C454.701 58.8004 450.401 43.2004 434.801 26.2004C421.401 11.6004 404.401 0.900391 375.501 0.900391H258.401C236.101 0.900391 233.301 34.3004 260.401 34.3004Z" fill="white"/>
<path fill-rule="evenodd" clip-rule="evenodd" d="M728.601 92.3002L728.201 54.5002C740.201 54.0002 753.601 54.2002 765.401 54.4002C790.001 54.8002 790.701 90.6002 766.301 92.3002C755.801 93.1002 739.301 92.8002 728.601 92.3002ZM728.201 41.9002L728.301 9.70022C732.301 8.70022 759.101 8.80022 764.401 9.20022C779.801 10.3002 785.701 31.3002 773.401 42.2002C766.501 48.4002 753.801 46.4002 741.201 46.4002C728.701 46.4002 728.201 47.9002 728.201 41.9002ZM718.501 101C730.401 101.3 742.101 101.1 753.701 101C766.101 101 775.401 101.5 783.801 95.2002C790.001 90.5002 795.301 82.7002 793.401 70.2002C791.501 57.6002 785.201 55.0002 777.501 50.2002C778.501 47.4002 777.701 49.1002 779.301 47.2002C780.701 45.7002 782.401 45.3002 785.101 41.4002C792.901 29.9002 789.701 13.1002 780.401 5.70022C772.501 -0.599782 763.701 0.900231 751.801 0.900231C740.601 0.900231 729.501 0.900231 718.301 0.900231L718.501 101Z" fill="white"/>
<path fill-rule="evenodd" clip-rule="evenodd" d="M980.301 7.10012V82.6001C976.101 81.2001 966.201 66.4002 963.301 62.7002L914.101 0.900165L906.301 1.00014L906.401 100.9H914.801C915.801 95.4002 915.901 99.9001 915.801 91.3001L915.901 20.2002C919.501 21.7002 962.001 76.8001 968.401 84.5001C979.401 98.0001 979.201 102.2 990.001 101.2L990.201 1.00014C980.901 0.20014 980.301 -0.599884 980.301 7.10012Z" fill="white"/>
<path fill-rule="evenodd" clip-rule="evenodd" d="M1085.6 13.7004C1086.8 14.9004 1085.6 12.7004 1087.4 15.9004L1105.4 61.7004L1065.8 61.9004C1065.8 59.2004 1079.6 27.0004 1082.6 19.7004L1085.6 13.7004ZM1040.6 101.3L1049.3 101.4C1053.9 96.4004 1058.9 77.2004 1063.2 70.0004L1108.8 69.8004L1121.3 100.9L1131 101C1130.3 95.7004 1123.6 81.9004 1121.2 75.9004C1117.3 66.2004 1092.8 4.80037 1089.4 1.00037L1081.3 0.900391C1077.4 15.2004 1040.2 95.0004 1040.6 101.3Z" fill="white"/>
<path fill-rule="evenodd" clip-rule="evenodd" d="M555.698 61.9002C555.598 58.4002 572.198 19.6002 574.798 13.9002C576.798 14.8002 575.998 14.3001 577.198 16.3001L595.398 61.7002L555.698 61.9002ZM530.098 101C543.298 101.1 540.098 100.3 544.698 89.2002C547.198 83.0002 550.298 76.3002 552.398 69.9002L597.998 69.8001C601.398 76.9001 607.698 96.1002 611.198 101.2L620.698 101.4C620.398 93.4002 583.898 15.6002 579.998 0.900171C569.698 0.900171 571.598 0.000133514 568.198 8.30013L540.798 73.7002C538.398 79.6002 530.498 96.5001 530.098 101Z" fill="white"/>
<path fill-rule="evenodd" clip-rule="evenodd" d="M833.101 61.9004C823.201 61.9004 825.001 61.8003 828.501 53.8003C832.301 45.1003 842.401 18.5004 845.101 14.4004C847.401 15.7004 846.801 14.1003 849.101 20.0003L856.301 38.0003C857.801 41.7003 865.301 58.7004 865.401 61.9004H833.101ZM800.301 100.9L810.001 101.1C814.901 91.0003 818.501 80.4003 823.001 69.8003L868.101 69.7004C872.901 79.4004 876.701 90.5004 881.401 100.9L890.901 101C890.201 95.5003 883.801 82.3003 881.301 76.0003L851.101 3.60032C849.101 0.200321 849.901 0.900346 841.301 1.00035C835.801 16.6003 827.601 34.8004 820.701 50.9004C817.901 57.6004 800.701 97.0004 800.301 100.9Z" fill="white"/>
<path fill-rule="evenodd" clip-rule="evenodd" d="M636.098 6.10028L636.298 101.1L703.398 101L703.698 92.8003C635.398 92.1003 645.698 100.2 645.698 71.0003L645.798 1.10028L636.098 0.800293V6.10028Z" fill="white"/>
<path fill-rule="evenodd" clip-rule="evenodd" d="M1025.1 97.1V6.10002C1025.1 2.00002 1026.2 1.90007 1023.3 0.900072C1021.6 0.400072 1017.1 0.500048 1016 1.50005C1014 3.40005 1015.3 13.1 1015.3 16.8V83.5C1015.3 86 1015 98.3 1015.5 99.6C1016.3 101.7 1018.4 101.9 1021.7 101.6C1025.3 101.2 1025.1 100.9 1025.1 97.1Z" fill="white"/>
<path d="M545.821 163.3L532.163 113.349H538.309L548.748 154.032H549.236L559.87 113.349H566.7L577.334 154.032H577.822L588.261 113.349H594.407L580.749 163.3H574.505L563.48 123.495H563.09L552.065 163.3H545.821ZM601.944 163.3V113.349H632.091V118.714H607.993V135.593H630.53V140.959H607.993V157.934H632.481V163.3H601.944ZM658.408 163.3H642.993V113.349H659.091C663.936 113.349 668.083 114.349 671.53 116.349C674.977 118.332 677.62 121.186 679.457 124.91C681.294 128.617 682.213 133.056 682.213 138.227C682.213 143.43 681.286 147.91 679.433 151.666C677.579 155.406 674.88 158.284 671.335 160.3C667.79 162.3 663.481 163.3 658.408 163.3ZM649.042 157.934H658.018C662.148 157.934 665.571 157.138 668.286 155.544C671.002 153.951 673.026 151.682 674.359 148.739C675.693 145.796 676.359 142.292 676.359 138.227C676.359 134.194 675.701 130.723 674.384 127.812C673.067 124.885 671.099 122.641 668.481 121.08C665.863 119.503 662.603 118.714 658.701 118.714H649.042V157.934ZM707.774 163.3H692.36V113.349H708.457C713.303 113.349 717.449 114.349 720.896 116.349C724.344 118.332 726.986 121.186 728.823 124.91C730.661 128.617 731.58 133.056 731.58 138.227C731.58 143.43 730.653 147.91 728.799 151.666C726.945 155.406 724.246 158.284 720.701 160.3C717.157 162.3 712.848 163.3 707.774 163.3ZM698.408 157.934H707.384C711.514 157.934 714.937 157.138 717.653 155.544C720.368 153.951 722.392 151.682 723.726 148.739C725.059 145.796 725.726 142.292 725.726 138.227C725.726 134.194 725.067 130.723 723.75 127.812C722.433 124.885 720.466 122.641 717.848 121.08C715.23 119.503 711.97 118.714 708.067 118.714H698.408V157.934ZM747.775 113.349V163.3H741.726V113.349H747.775ZM799.513 113.349V163.3H793.66L766.44 124.08H765.952V163.3H759.903V113.349H765.757L793.074 152.666H793.562V113.349H799.513ZM845.764 128.958C845.227 127.316 844.52 125.845 843.642 124.544C842.78 123.227 841.747 122.105 840.544 121.178C839.357 120.251 838.008 119.544 836.495 119.056C834.983 118.568 833.325 118.324 831.52 118.324C828.56 118.324 825.869 119.088 823.446 120.617C821.024 122.145 819.097 124.397 817.666 127.373C816.235 130.349 815.52 133.999 815.52 138.324C815.52 142.65 816.243 146.3 817.69 149.276C819.137 152.251 821.097 154.503 823.568 156.032C826.04 157.56 828.82 158.325 831.91 158.325C834.772 158.325 837.292 157.715 839.471 156.495C841.666 155.26 843.373 153.52 844.593 151.276C845.829 149.016 846.447 146.357 846.447 143.3L848.3 143.69H833.276V138.324H852.3V143.69C852.3 147.804 851.422 151.381 849.666 154.422C847.926 157.463 845.52 159.821 842.447 161.495C839.39 163.154 835.877 163.983 831.91 163.983C827.487 163.983 823.601 162.943 820.251 160.861C816.918 158.78 814.316 155.821 812.446 151.983C810.593 148.146 809.666 143.593 809.666 138.324C809.666 134.373 810.194 130.82 811.251 127.666C812.324 124.495 813.837 121.796 815.788 119.568C817.739 117.34 820.048 115.633 822.715 114.446C825.381 113.259 828.316 112.666 831.52 112.666C834.154 112.666 836.609 113.064 838.886 113.861C841.178 114.641 843.219 115.755 845.008 117.202C846.813 118.633 848.317 120.349 849.52 122.349C850.723 124.332 851.552 126.536 852.008 128.958H845.764ZM922.173 128.958H916.124C915.767 127.219 915.141 125.69 914.246 124.373C913.368 123.056 912.295 121.95 911.027 121.056C909.775 120.145 908.384 119.462 906.856 119.007C905.327 118.552 903.734 118.324 902.075 118.324C899.051 118.324 896.311 119.088 893.856 120.617C891.417 122.145 889.474 124.397 888.026 127.373C886.595 130.349 885.88 133.999 885.88 138.324C885.88 142.65 886.595 146.3 888.026 149.276C889.474 152.251 891.417 154.503 893.856 156.032C896.311 157.56 899.051 158.325 902.075 158.325C903.734 158.325 905.327 158.097 906.856 157.642C908.384 157.186 909.775 156.512 911.027 155.617C912.295 154.707 913.368 153.593 914.246 152.276C915.141 150.942 915.767 149.414 916.124 147.69H922.173C921.718 150.243 920.889 152.528 919.685 154.544C918.482 156.56 916.986 158.276 915.197 159.69C913.409 161.089 911.401 162.154 909.173 162.886C906.962 163.617 904.596 163.983 902.075 163.983C897.815 163.983 894.026 162.943 890.709 160.861C887.392 158.78 884.782 155.821 882.88 151.983C880.978 148.146 880.026 143.593 880.026 138.324C880.026 133.056 880.978 128.503 882.88 124.666C884.782 120.828 887.392 117.869 890.709 115.788C894.026 113.706 897.815 112.666 902.075 112.666C904.596 112.666 906.962 113.031 909.173 113.763C911.401 114.495 913.409 115.568 915.197 116.983C916.986 118.381 918.482 120.088 919.685 122.105C920.889 124.105 921.718 126.389 922.173 128.958ZM974.094 138.324C974.094 143.593 973.143 148.146 971.241 151.983C969.338 155.821 966.729 158.78 963.411 160.861C960.094 162.943 956.306 163.983 952.045 163.983C947.785 163.983 943.997 162.943 940.679 160.861C937.362 158.78 934.753 155.821 932.85 151.983C930.948 148.146 929.996 143.593 929.996 138.324C929.996 133.056 930.948 128.503 932.85 124.666C934.753 120.828 937.362 117.869 940.679 115.788C943.997 113.706 947.785 112.666 952.045 112.666C956.306 112.666 960.094 113.706 963.411 115.788C966.729 117.869 969.338 120.828 971.241 124.666C973.143 128.503 974.094 133.056 974.094 138.324ZM968.241 138.324C968.241 133.999 967.517 130.349 966.07 127.373C964.639 124.397 962.696 122.145 960.241 120.617C957.802 119.088 955.07 118.324 952.045 118.324C949.021 118.324 946.281 119.088 943.826 120.617C941.387 122.145 939.444 124.397 937.997 127.373C936.566 130.349 935.85 133.999 935.85 138.324C935.85 142.65 936.566 146.3 937.997 149.276C939.444 152.251 941.387 154.503 943.826 156.032C946.281 157.56 949.021 158.325 952.045 158.325C955.07 158.325 957.802 157.56 960.241 156.032C962.696 154.503 964.639 152.251 966.07 149.276C967.517 146.3 968.241 142.65 968.241 138.324ZM984.265 113.349H991.485L1008.46 154.812H1009.05L1026.02 113.349H1033.24V163.3H1027.58V125.349H1027.1L1011.49 163.3H1006.02L990.412 125.349H989.924V163.3H984.265V113.349ZM1045.37 163.3V113.349H1062.25C1066.17 113.349 1069.37 114.056 1071.86 115.47C1074.36 116.869 1076.22 118.763 1077.42 121.153C1078.62 123.544 1079.22 126.21 1079.22 129.154C1079.22 132.097 1078.62 134.772 1077.42 137.178C1076.23 139.585 1074.39 141.503 1071.91 142.934C1069.42 144.349 1066.23 145.056 1062.35 145.056H1050.25V139.69H1062.15C1064.83 139.69 1066.99 139.227 1068.61 138.3C1070.24 137.373 1071.42 136.121 1072.15 134.544C1072.9 132.95 1073.27 131.154 1073.27 129.154C1073.27 127.154 1072.9 125.365 1072.15 123.788C1071.42 122.21 1070.23 120.975 1068.59 120.08C1066.95 119.17 1064.77 118.714 1062.05 118.714H1051.42V163.3H1045.37ZM1085.92 163.3H1079.58L1097.92 113.349H1104.16L1122.5 163.3H1116.16L1101.24 121.251H1100.85L1085.92 163.3ZM1088.26 143.788H1113.82V149.154H1088.26V143.788ZM1169.9 113.349V163.3H1164.04L1136.82 124.08H1136.33V163.3H1130.29V113.349H1136.14L1163.46 152.666H1163.94V113.349H1169.9ZM1177.71 113.349H1184.63L1198.49 136.666H1199.07L1212.93 113.349H1219.85L1201.8 142.715V163.3H1195.76V142.715L1177.71 113.349Z" fill="white"/>
<path d="M544.886 216.25H538.072V194.17H545.188C547.33 194.17 549.162 194.612 550.686 195.496C552.21 196.373 553.378 197.634 554.19 199.28C555.002 200.919 555.408 202.881 555.408 205.167C555.408 207.467 554.999 209.447 554.179 211.107C553.36 212.76 552.167 214.033 550.6 214.924C549.033 215.808 547.128 216.25 544.886 216.25ZM540.746 213.878H544.713C546.539 213.878 548.052 213.526 549.252 212.822C550.453 212.117 551.347 211.115 551.937 209.814C552.526 208.513 552.821 206.964 552.821 205.167C552.821 203.384 552.53 201.85 551.948 200.563C551.365 199.27 550.496 198.278 549.339 197.588C548.181 196.891 546.74 196.542 545.015 196.542H540.746V213.878ZM568.346 194.17H571.02V209.954C571.02 211.363 570.761 212.559 570.243 213.544C569.726 214.529 568.996 215.276 568.055 215.786C567.113 216.297 566.003 216.552 564.723 216.552C563.516 216.552 562.441 216.333 561.5 215.894C560.558 215.449 559.818 214.816 559.279 213.997C558.74 213.177 558.47 212.203 558.47 211.075H561.101C561.101 211.7 561.255 212.247 561.564 212.714C561.881 213.174 562.312 213.533 562.858 213.792C563.404 214.051 564.026 214.18 564.723 214.18C565.492 214.18 566.146 214.018 566.686 213.695C567.225 213.371 567.634 212.897 567.915 212.272C568.202 211.639 568.346 210.867 568.346 209.954V194.17ZM585.52 204.024V206.396H575.86V204.024H585.52ZM590.342 216.25V194.17H593.016V213.878H603.28V216.25H590.342ZM610.093 194.17V216.25H607.42V194.17H610.093ZM630.548 201.07C630.311 200.344 629.998 199.694 629.61 199.119C629.229 198.536 628.773 198.041 628.241 197.631C627.716 197.221 627.12 196.909 626.451 196.693C625.783 196.477 625.05 196.369 624.252 196.369C622.944 196.369 621.754 196.707 620.683 197.383C619.612 198.059 618.761 199.054 618.128 200.369C617.496 201.685 617.179 203.298 617.179 205.21C617.179 207.122 617.499 208.735 618.139 210.051C618.778 211.366 619.645 212.362 620.737 213.037C621.83 213.713 623.059 214.051 624.424 214.051C625.689 214.051 626.803 213.781 627.766 213.242C628.737 212.696 629.491 211.927 630.03 210.935C630.577 209.936 630.85 208.761 630.85 207.409L631.669 207.582H625.028V205.21H633.437V207.582C633.437 209.4 633.049 210.982 632.273 212.326C631.504 213.67 630.44 214.712 629.082 215.452C627.73 216.185 626.178 216.552 624.424 216.552C622.469 216.552 620.751 216.092 619.271 215.172C617.797 214.252 616.647 212.944 615.821 211.248C615.001 209.551 614.592 207.539 614.592 205.21C614.592 203.463 614.825 201.893 615.293 200.499C615.767 199.097 616.435 197.904 617.298 196.919C618.16 195.935 619.181 195.18 620.36 194.655C621.538 194.131 622.836 193.868 624.252 193.868C625.416 193.868 626.501 194.044 627.508 194.396C628.521 194.741 629.423 195.234 630.214 195.874C631.012 196.506 631.676 197.264 632.208 198.148C632.74 199.025 633.107 199.999 633.308 201.07H630.548ZM638.017 216.25V194.17H640.69V204.003H652.463V194.17H655.137V216.25H652.463V206.374H640.69V216.25H638.017ZM659.283 196.542V194.17H675.843V196.542H668.899V216.25H666.226V196.542H659.283ZM686.858 204.024V206.396H677.198V204.024H686.858ZM691.68 216.25V194.17H694.354V213.878H704.618V216.25H691.68ZM726.528 205.21C726.528 207.539 726.107 209.551 725.266 211.248C724.425 212.944 723.272 214.252 721.805 215.172C720.339 216.092 718.665 216.552 716.781 216.552C714.898 216.552 713.224 216.092 711.757 215.172C710.291 214.252 709.138 212.944 708.297 211.248C707.456 209.551 707.035 207.539 707.035 205.21C707.035 202.881 707.456 200.869 708.297 199.173C709.138 197.476 710.291 196.168 711.757 195.248C713.224 194.328 714.898 193.868 716.781 193.868C718.665 193.868 720.339 194.328 721.805 195.248C723.272 196.168 724.425 197.476 725.266 199.173C726.107 200.869 726.528 202.881 726.528 205.21ZM723.94 205.21C723.94 203.298 723.62 201.685 722.981 200.369C722.348 199.054 721.489 198.059 720.404 197.383C719.326 196.707 718.118 196.369 716.781 196.369C715.445 196.369 714.233 196.707 713.148 197.383C712.07 198.059 711.211 199.054 710.571 200.369C709.939 201.685 709.623 203.298 709.623 205.21C709.623 207.122 709.939 208.735 710.571 210.051C711.211 211.366 712.07 212.362 713.148 213.037C714.233 213.713 715.445 214.051 716.781 214.051C718.118 214.051 719.326 213.713 720.404 213.037C721.489 212.362 722.348 211.366 722.981 210.051C723.62 208.735 723.94 207.122 723.94 205.21ZM735.034 216.25L728.997 194.17H731.713L736.328 212.153H736.543L741.244 194.17H744.263L748.963 212.153H749.179L753.793 194.17H756.51L750.473 216.25H747.713L742.84 198.655H742.667L737.794 216.25H735.034ZM759.842 216.25V194.17H773.081V196.542H762.515V204.003H772.089V206.374H762.515V216.25H759.842ZM796.29 205.21C796.29 207.539 795.87 209.551 795.029 211.248C794.188 212.944 793.034 214.252 791.568 215.172C790.102 216.092 788.427 216.552 786.544 216.552C784.661 216.552 782.986 216.092 781.52 215.172C780.054 214.252 778.9 212.944 778.059 211.248C777.218 209.551 776.798 207.539 776.798 205.21C776.798 202.881 777.218 200.869 778.059 199.173C778.9 197.476 780.054 196.168 781.52 195.248C782.986 194.328 784.661 193.868 786.544 193.868C788.427 193.868 790.102 194.328 791.568 195.248C793.034 196.168 794.188 197.476 795.029 199.173C795.87 200.869 796.29 202.881 796.29 205.21ZM793.703 205.21C793.703 203.298 793.383 201.685 792.743 200.369C792.111 199.054 791.252 198.059 790.166 197.383C789.088 196.707 787.881 196.369 786.544 196.369C785.207 196.369 783.996 196.707 782.911 197.383C781.833 198.059 780.974 199.054 780.334 200.369C779.701 201.685 779.385 203.298 779.385 205.21C779.385 207.122 779.701 208.735 780.334 210.051C780.974 211.366 781.833 212.362 782.911 213.037C783.996 213.713 785.207 214.051 786.544 214.051C787.881 214.051 789.088 213.713 790.166 213.037C791.252 212.362 792.111 211.366 792.743 210.051C793.383 208.735 793.703 207.122 793.703 205.21ZM815.88 201.07C815.642 200.344 815.33 199.694 814.942 199.119C814.561 198.536 814.104 198.041 813.572 197.631C813.048 197.221 812.451 196.909 811.783 196.693C811.114 196.477 810.381 196.369 809.583 196.369C808.275 196.369 807.086 196.707 806.015 197.383C804.944 198.059 804.092 199.054 803.46 200.369C802.827 201.685 802.511 203.298 802.511 205.21C802.511 207.122 802.831 208.735 803.47 210.051C804.11 211.366 804.976 212.362 806.069 213.037C807.161 213.713 808.39 214.051 809.756 214.051C811.021 214.051 812.135 213.781 813.098 213.242C814.068 212.696 814.823 211.927 815.362 210.935C815.908 209.936 816.181 208.761 816.181 207.409L817.001 207.582H810.36V205.21H818.769V207.582C818.769 209.4 818.381 210.982 817.605 212.326C816.836 213.67 815.772 214.712 814.413 215.452C813.062 216.185 811.51 216.552 809.756 216.552C807.801 216.552 806.083 216.092 804.602 215.172C803.129 214.252 801.979 212.944 801.152 211.248C800.333 209.551 799.923 207.539 799.923 205.21C799.923 203.463 800.157 201.893 800.624 200.499C801.099 199.097 801.767 197.904 802.63 196.919C803.492 195.935 804.513 195.18 805.691 194.655C806.87 194.131 808.167 193.868 809.583 193.868C810.748 193.868 811.833 194.044 812.839 194.396C813.853 194.741 814.755 195.234 815.545 195.874C816.343 196.506 817.008 197.264 817.54 198.148C818.072 199.025 818.438 199.999 818.64 201.07H815.88ZM832.448 205.21C832.448 202.493 832.8 199.996 833.504 197.717C834.216 195.431 835.229 193.329 836.545 191.41H838.787C838.27 192.122 837.784 192.999 837.332 194.041C836.886 195.076 836.494 196.215 836.156 197.458C835.819 198.695 835.553 199.974 835.359 201.296C835.172 202.619 835.078 203.923 835.078 205.21C835.078 206.921 835.244 208.656 835.574 210.417C835.905 212.178 836.35 213.813 836.911 215.323C837.472 216.832 838.097 218.061 838.787 219.01H836.545C835.229 217.091 834.216 214.992 833.504 212.714C832.8 210.428 832.448 207.927 832.448 205.21ZM854.961 199.69C854.832 198.598 854.307 197.749 853.387 197.146C852.467 196.542 851.339 196.24 850.002 196.24C849.025 196.24 848.169 196.398 847.436 196.714C846.71 197.031 846.142 197.466 845.733 198.019C845.33 198.572 845.129 199.201 845.129 199.906C845.129 200.495 845.269 201.002 845.549 201.426C845.837 201.843 846.204 202.191 846.649 202.472C847.095 202.745 847.562 202.971 848.051 203.151C848.539 203.323 848.989 203.463 849.398 203.571L851.641 204.175C852.216 204.326 852.856 204.534 853.56 204.8C854.271 205.066 854.951 205.429 855.598 205.889C856.252 206.342 856.791 206.924 857.215 207.636C857.639 208.347 857.851 209.221 857.851 210.256C857.851 211.449 857.538 212.527 856.913 213.49C856.295 214.453 855.389 215.219 854.196 215.786C853.01 216.354 851.569 216.638 849.873 216.638C848.292 216.638 846.922 216.383 845.765 215.873C844.615 215.362 843.71 214.651 843.048 213.738C842.394 212.825 842.024 211.765 841.938 210.558H844.698C844.77 211.391 845.05 212.081 845.539 212.628C846.035 213.167 846.66 213.569 847.415 213.835C848.177 214.094 848.996 214.223 849.873 214.223C850.893 214.223 851.81 214.058 852.622 213.727C853.434 213.389 854.077 212.922 854.552 212.326C855.026 211.722 855.263 211.018 855.263 210.213C855.263 209.479 855.059 208.883 854.649 208.423C854.239 207.963 853.7 207.589 853.032 207.302C852.363 207.014 851.641 206.763 850.865 206.547L848.148 205.771C846.423 205.275 845.057 204.567 844.051 203.647C843.045 202.727 842.542 201.523 842.542 200.035C842.542 198.799 842.876 197.721 843.544 196.801C844.22 195.874 845.125 195.155 846.261 194.644C847.404 194.127 848.68 193.868 850.088 193.868C851.512 193.868 852.776 194.123 853.883 194.634C854.99 195.137 855.867 195.827 856.514 196.704C857.168 197.581 857.513 198.576 857.549 199.69H854.961ZM862.247 216.25V194.17H869.707C871.44 194.17 872.856 194.483 873.955 195.108C875.062 195.726 875.882 196.564 876.413 197.62C876.945 198.677 877.211 199.855 877.211 201.156C877.211 202.457 876.945 203.64 876.413 204.703C875.889 205.767 875.077 206.615 873.977 207.248C872.877 207.873 871.468 208.186 869.751 208.186H864.403V205.814H869.664C870.85 205.814 871.803 205.609 872.521 205.199C873.24 204.79 873.761 204.236 874.085 203.539C874.415 202.835 874.581 202.04 874.581 201.156C874.581 200.272 874.415 199.482 874.085 198.784C873.761 198.087 873.237 197.541 872.511 197.146C871.785 196.743 870.822 196.542 869.621 196.542H864.921V216.25H862.247ZM881.518 216.25V194.17H894.844V196.542H884.192V204.003H894.154V206.374H884.192V213.878H895.016V216.25H881.518ZM917.43 201.07H914.757C914.599 200.301 914.322 199.625 913.927 199.043C913.538 198.461 913.064 197.972 912.503 197.577C911.95 197.174 911.336 196.873 910.66 196.671C909.984 196.47 909.28 196.369 908.547 196.369C907.21 196.369 905.999 196.707 904.914 197.383C903.835 198.059 902.976 199.054 902.337 200.369C901.704 201.685 901.388 203.298 901.388 205.21C901.388 207.122 901.704 208.735 902.337 210.051C902.976 211.366 903.835 212.362 904.914 213.037C905.999 213.713 907.21 214.051 908.547 214.051C909.28 214.051 909.984 213.95 910.66 213.749C911.336 213.548 911.95 213.249 912.503 212.854C913.064 212.451 913.538 211.959 913.927 211.377C914.322 210.788 914.599 210.112 914.757 209.35H917.43C917.229 210.478 916.863 211.488 916.331 212.38C915.799 213.271 915.138 214.029 914.347 214.654C913.556 215.273 912.669 215.743 911.684 216.067C910.707 216.39 909.661 216.552 908.547 216.552C906.664 216.552 904.989 216.092 903.523 215.172C902.056 214.252 900.903 212.944 900.062 211.248C899.221 209.551 898.801 207.539 898.801 205.21C898.801 202.881 899.221 200.869 900.062 199.173C900.903 197.476 902.056 196.168 903.523 195.248C904.989 194.328 906.664 193.868 908.547 193.868C909.661 193.868 910.707 194.03 911.684 194.353C912.669 194.677 913.556 195.151 914.347 195.776C915.138 196.395 915.799 197.149 916.331 198.041C916.863 198.925 917.229 199.934 917.43 201.07ZM924.425 194.17V216.25H921.751V194.17H924.425ZM930.691 216.25H927.888L935.996 194.17H938.756L946.863 216.25H944.06L937.462 197.663H937.289L930.691 216.25ZM931.726 207.625H943.025V209.997H931.726V207.625ZM950.302 216.25V194.17H952.976V213.878H963.24V216.25H950.302ZM975.919 216.25V194.17H989.244V196.542H978.592V204.003H988.554V206.374H978.592V213.878H989.417V216.25H975.919ZM994.063 216.25V194.17H1007.3V196.542H996.737V204.003H1006.31V206.374H996.737V216.25H994.063ZM1011.88 216.25V194.17H1025.12V196.542H1014.56V204.003H1024.13V206.374H1014.56V216.25H1011.88ZM1029.7 216.25V194.17H1043.03V196.542H1032.37V204.003H1042.34V206.374H1032.37V213.878H1043.2V216.25H1029.7ZM1065.61 201.07H1062.94C1062.78 200.301 1062.5 199.625 1062.11 199.043C1061.72 198.461 1061.25 197.972 1060.69 197.577C1060.13 197.174 1059.52 196.873 1058.84 196.671C1058.17 196.47 1057.46 196.369 1056.73 196.369C1055.39 196.369 1054.18 196.707 1053.1 197.383C1052.02 198.059 1051.16 199.054 1050.52 200.369C1049.89 201.685 1049.57 203.298 1049.57 205.21C1049.57 207.122 1049.89 208.735 1050.52 210.051C1051.16 211.366 1052.02 212.362 1053.1 213.037C1054.18 213.713 1055.39 214.051 1056.73 214.051C1057.46 214.051 1058.17 213.95 1058.84 213.749C1059.52 213.548 1060.13 213.249 1060.69 212.854C1061.25 212.451 1061.72 211.959 1062.11 211.377C1062.5 210.788 1062.78 210.112 1062.94 209.35H1065.61C1065.41 210.478 1065.04 211.488 1064.51 212.38C1063.98 213.271 1063.32 214.029 1062.53 214.654C1061.74 215.273 1060.85 215.743 1059.87 216.067C1058.89 216.39 1057.84 216.552 1056.73 216.552C1054.85 216.552 1053.17 216.092 1051.71 215.172C1050.24 214.252 1049.09 212.944 1048.24 211.248C1047.4 209.551 1046.98 207.539 1046.98 205.21C1046.98 202.881 1047.4 200.869 1048.24 199.173C1049.09 197.476 1050.24 196.168 1051.71 195.248C1053.17 194.328 1054.85 193.868 1056.73 193.868C1057.84 193.868 1058.89 194.03 1059.87 194.353C1060.85 194.677 1061.74 195.151 1062.53 195.776C1063.32 196.395 1063.98 197.149 1064.51 198.041C1065.04 198.925 1065.41 199.934 1065.61 201.07ZM1068.73 196.542V194.17H1085.29V196.542H1078.34V216.25H1075.67V196.542H1068.73ZM1101.49 199.69C1101.36 198.598 1100.83 197.749 1099.91 197.146C1098.99 196.542 1097.86 196.24 1096.53 196.24C1095.55 196.24 1094.7 196.398 1093.96 196.714C1093.24 197.031 1092.67 197.466 1092.26 198.019C1091.86 198.572 1091.65 199.201 1091.65 199.906C1091.65 200.495 1091.79 201.002 1092.08 201.426C1092.36 201.843 1092.73 202.191 1093.17 202.472C1093.62 202.745 1094.09 202.971 1094.58 203.151C1095.07 203.323 1095.51 203.463 1095.92 203.571L1098.17 204.175C1098.74 204.326 1099.38 204.534 1100.09 204.8C1100.8 205.066 1101.48 205.429 1102.12 205.889C1102.78 206.342 1103.32 206.924 1103.74 207.636C1104.16 208.347 1104.38 209.221 1104.38 210.256C1104.38 211.449 1104.06 212.527 1103.44 213.49C1102.82 214.453 1101.91 215.219 1100.72 215.786C1099.54 216.354 1098.09 216.638 1096.4 216.638C1094.82 216.638 1093.45 216.383 1092.29 215.873C1091.14 215.362 1090.24 214.651 1089.57 213.738C1088.92 212.825 1088.55 211.765 1088.46 210.558H1091.22C1091.3 211.391 1091.58 212.081 1092.06 212.628C1092.56 213.167 1093.19 213.569 1093.94 213.835C1094.7 214.094 1095.52 214.223 1096.4 214.223C1097.42 214.223 1098.34 214.058 1099.15 213.727C1099.96 213.389 1100.6 212.922 1101.08 212.326C1101.55 211.722 1101.79 211.018 1101.79 210.213C1101.79 209.479 1101.58 208.883 1101.17 208.423C1100.76 207.963 1100.23 207.589 1099.56 207.302C1098.89 207.014 1098.17 206.763 1097.39 206.547L1094.67 205.771C1092.95 205.275 1091.58 204.567 1090.58 203.647C1089.57 202.727 1089.07 201.523 1089.07 200.035C1089.07 198.799 1089.4 197.721 1090.07 196.801C1090.75 195.874 1091.65 195.155 1092.79 194.644C1093.93 194.127 1095.21 193.868 1096.61 193.868C1098.04 193.868 1099.3 194.123 1100.41 194.634C1101.52 195.137 1102.39 195.827 1103.04 196.704C1103.69 197.581 1104.04 198.576 1104.07 199.69H1101.49ZM1113.86 205.21C1113.86 207.927 1113.51 210.428 1112.79 212.714C1112.09 214.992 1111.08 217.091 1109.76 219.01H1107.52C1108.04 218.298 1108.52 217.422 1108.97 216.379C1109.42 215.344 1109.81 214.209 1110.15 212.973C1110.49 211.729 1110.75 210.446 1110.94 209.124C1111.13 207.794 1111.23 206.489 1111.23 205.21C1111.23 203.499 1111.07 201.764 1110.73 200.003C1110.4 198.242 1109.96 196.607 1109.4 195.097C1108.84 193.588 1108.21 192.359 1107.52 191.41H1109.76C1111.08 193.329 1112.09 195.431 1112.79 197.717C1113.51 199.996 1113.86 202.493 1113.86 205.21Z" fill="white"/>
<path fill-rule="evenodd" clip-rule="evenodd" d="M531.701 173.9H1141.9C1143.5 173.9 1144.8 175.2 1144.8 176.8V235.5C1144.8 237.1 1143.5 238.4 1141.9 238.4H531.701C530.101 238.4 528.801 237.1 528.801 235.5V176.8C528.801 175.2 530.101 173.9 531.701 173.9ZM533.001 175.1H1140.7C1142.2 175.1 1143.4 176.4 1143.4 177.9V234C1143.4 235.5 1142.2 236.7 1140.7 236.7H533.001C531.501 236.7 530.201 235.5 530.201 234V177.9C530.201 176.4 531.501 175.1 533.001 175.1Z" fill="white" stroke="#231F20" stroke-width="0.763" stroke-linecap="round" stroke-linejoin="round"/>
</svg>
